<svg width="381" height="272" viewBox="0 0 381 272" fill="none" xmlns="http://www.w3.org/2000/svg">
<path d="M187 18.25L194.907 107.923L230.387 119.75L266.093 107.923L274 18.25H187ZM256.827 47.2273H215.184L216.113 58.4195H255.898L252.816 92.0414L230.636 98.1586V98.2266H230.387L208.025 92.0414L206.666 74.868H217.473L218.266 83.5L230.387 86.7852L242.553 83.5L243.912 69.4078H206.099L203.199 36.4203H257.823L256.827 47.2273Z" fill="#44B9F1" fill-opacity="0.86"/>
<path d="M292 18.125L299.816 106.252L335 117.875L370.184 106.252L378 18.125H292ZM362.121 35.9375L361.046 46.4691L335.224 57.4461L335.157 57.4684H360.128L357.261 90.1098L335.269 96.5L313.142 89.9984L311.708 73.5441H322.66L323.377 82.0719L335.157 85.0332L347.407 81.6043L348.236 67.8887L310.992 67.7773V67.7551L310.947 67.7773L310.141 57.4684L335.246 47.0703L336.702 46.4691H309.178L307.879 35.9375H362.121Z" fill="#CA6FFA"/>
<path d="M137.25 10.5H21.75C13.0547 10.5 6 17.5547 6 26.25V141.75C6 150.445 13.0547 157.5 21.75 157.5H137.25C145.945 157.5 153 150.445 153 141.75V26.25C153 17.5547 145.945 10.5 137.25 10.5ZM85.9969 125.147C85.9969 139.453 77.5969 145.983 65.3578 145.983C54.3 145.983 47.9016 140.273 44.6203 133.35L55.875 126.558C58.0406 130.397 60.0094 133.645 64.7672 133.645C69.2953 133.645 72.1828 131.873 72.1828 124.95V77.9953H85.9969V125.147ZM118.678 145.983C105.848 145.983 97.5469 139.88 93.5109 131.873L104.766 125.377C107.719 130.2 111.591 133.777 118.383 133.777C124.092 133.777 127.767 130.922 127.767 126.952C127.767 122.227 124.027 120.553 117.694 117.764L114.248 116.287C104.273 112.055 97.6781 106.706 97.6781 95.4516C97.6781 85.0828 105.586 77.2078 117.891 77.2078C126.684 77.2078 132.984 80.2594 137.512 88.2656L126.75 95.1562C124.387 90.9234 121.828 89.25 117.858 89.25C113.822 89.25 111.262 91.8094 111.262 95.1562C111.262 99.2906 113.822 100.964 119.761 103.556L123.206 105.033C134.953 110.053 141.548 115.205 141.548 126.755C141.548 139.158 131.77 145.983 118.678 145.983Z" fill="#CA6FFA"/>
<path d="M154.413 208.225C153.4 207.888 152.387 207.569 151.375 207.269C151.544 206.575 151.694 205.881 151.844 205.188C154.15 194.013 152.631 185.031 147.512 182.069C142.581 179.238 134.537 182.181 126.4 189.269C125.594 189.963 124.806 190.694 124.056 191.425C123.55 190.938 123.025 190.45 122.5 189.981C113.969 182.406 105.419 179.219 100.3 182.2C95.3875 185.05 93.925 193.506 95.9875 204.081C96.1938 205.131 96.4188 206.163 96.6813 207.213C95.4813 207.55 94.3 207.925 93.1937 208.319C83.1812 211.788 76 217.263 76 222.925C76 228.775 83.65 234.644 94.0563 238.206C94.9 238.488 95.7437 238.769 96.6063 239.013C96.325 240.138 96.0813 241.244 95.8563 242.388C93.8875 252.794 95.425 261.044 100.338 263.875C105.4 266.8 113.912 263.8 122.2 256.544C122.856 255.963 123.512 255.363 124.169 254.725C124.994 255.531 125.856 256.3 126.719 257.05C134.744 263.95 142.675 266.744 147.569 263.913C152.631 260.988 154.281 252.119 152.144 241.319C151.975 240.494 151.787 239.65 151.581 238.788C152.181 238.619 152.762 238.431 153.344 238.244C164.162 234.663 172 228.869 172 222.925C172 217.244 164.613 211.731 154.413 208.225ZM129.044 192.306C136.019 186.231 142.525 183.85 145.488 185.556C148.656 187.375 149.875 194.725 147.887 204.381C147.756 205.019 147.625 205.638 147.456 206.256C143.294 205.319 139.075 204.644 134.837 204.269C132.4 200.781 129.738 197.444 126.85 194.313C127.581 193.619 128.294 192.963 129.044 192.306ZM107.35 232.656C108.306 234.288 109.281 235.919 110.312 237.513C107.388 237.194 104.481 236.725 101.613 236.106C102.438 233.406 103.469 230.613 104.669 227.763C105.531 229.413 106.412 231.044 107.35 232.656ZM101.669 210.1C104.369 209.5 107.237 209.013 110.219 208.638C109.225 210.194 108.25 211.788 107.331 213.4C106.413 214.994 105.512 216.625 104.669 218.275C103.487 215.481 102.494 212.744 101.669 210.1ZM106.806 223.019C108.044 220.431 109.394 217.9 110.819 215.406C112.244 212.913 113.781 210.494 115.394 208.113C118.206 207.906 121.075 207.794 124 207.794C126.925 207.794 129.812 207.906 132.606 208.113C134.2 210.475 135.719 212.894 137.163 215.369C138.606 217.844 139.956 220.375 141.231 222.944C139.975 225.531 138.625 228.081 137.181 230.594C135.756 233.088 134.238 235.506 132.644 237.906C129.85 238.113 126.944 238.206 124 238.206C121.056 238.206 118.206 238.113 115.45 237.944C113.819 235.563 112.281 233.125 110.838 230.631C109.394 228.138 108.062 225.606 106.806 223.019ZM140.669 232.619C141.625 230.969 142.525 229.3 143.406 227.613C144.606 230.331 145.656 233.088 146.575 235.919C143.669 236.575 140.725 237.081 137.762 237.419C138.775 235.844 139.731 234.231 140.669 232.619ZM143.369 218.275C142.487 216.625 141.587 214.975 140.65 213.363C139.731 211.769 138.775 210.194 137.781 208.638C140.8 209.013 143.688 209.519 146.387 210.138C145.525 212.913 144.512 215.613 143.369 218.275ZM124.038 197.181C126.006 199.319 127.862 201.569 129.587 203.894C125.875 203.725 122.144 203.725 118.431 203.894C120.269 201.475 122.163 199.225 124.038 197.181ZM102.287 185.688C105.438 183.85 112.431 186.475 119.8 193C120.269 193.413 120.737 193.863 121.225 194.313C118.319 197.444 115.638 200.781 113.181 204.269C108.944 204.644 104.744 205.3 100.581 206.219C100.338 205.263 100.131 204.288 99.925 203.313C98.1625 194.238 99.325 187.394 102.287 185.688ZM97.6937 235.113C96.9062 234.888 96.1375 234.644 95.3688 234.381C91.375 233.125 86.8375 231.138 83.5562 228.531C81.6625 227.219 80.3875 225.194 80.0312 222.925C80.0312 219.494 85.9562 215.106 94.5062 212.125C95.575 211.75 96.6625 211.413 97.75 211.094C99.025 215.163 100.562 219.156 102.344 223.019C100.544 226.938 98.9875 230.988 97.6937 235.113ZM119.556 253.488C116.463 256.319 112.881 258.569 108.981 260.106C106.9 261.1 104.5 261.194 102.363 260.35C99.3813 258.625 98.1437 252.006 99.8312 243.1C100.038 242.05 100.263 241 100.525 239.969C104.725 240.869 108.962 241.488 113.256 241.806C115.731 245.313 118.45 248.669 121.356 251.819C120.756 252.4 120.156 252.963 119.556 253.488ZM124.15 248.931C122.237 246.869 120.325 244.581 118.469 242.125C120.269 242.2 122.125 242.238 124 242.238C125.931 242.238 127.825 242.2 129.7 242.106C127.975 244.488 126.119 246.756 124.15 248.931ZM148.656 254.556C148.488 256.844 147.363 258.981 145.562 260.425C142.581 262.15 136.225 259.9 129.363 254.013C128.575 253.338 127.787 252.606 126.981 251.856C129.85 248.688 132.494 245.331 134.894 241.806C139.188 241.45 143.462 240.794 147.681 239.838C147.869 240.606 148.037 241.375 148.188 242.125C149.106 246.175 149.256 250.394 148.656 254.556ZM152.069 234.4C151.544 234.569 151.019 234.738 150.475 234.888C149.163 230.8 147.55 226.806 145.694 222.925C147.494 219.1 149.013 215.163 150.288 211.131C151.263 211.413 152.2 211.713 153.1 212.013C161.838 215.013 167.969 219.475 167.969 222.888C167.969 226.563 161.425 231.306 152.069 234.4ZM124 231.588C128.744 231.588 132.587 227.744 132.587 223C132.587 218.256 128.744 214.413 124 214.413C119.256 214.413 115.412 218.256 115.412 223C115.412 227.744 119.256 231.588 124 231.588Z" fill="#00D1FF"/>
<path d="M2.58854 194.774C2.58854 184.958 10.5183 177 20.3003 177H50.6912C60.4731 177 68.403 184.958 68.403 194.774C68.403 200.99 65.2235 206.46 60.4075 209.637C65.2235 212.814 68.403 218.285 68.403 224.5C68.403 234.317 60.4731 242.274 50.6912 242.274H50.3066C45.7209 242.274 41.542 240.525 38.3966 237.656V254.033C38.3966 263.98 30.2595 272 20.3957 272C10.6382 272 2.58854 264.067 2.58854 254.226C2.58854 248.01 5.76773 242.54 10.5833 239.363C5.76773 236.186 2.58854 230.716 2.58854 224.5C2.58854 218.285 5.76801 212.814 10.5839 209.637C5.76801 206.46 2.58854 200.99 2.58854 194.774ZM32.5949 212.548H20.3003C13.7224 212.548 8.39016 217.9 8.39016 224.5C8.39016 231.076 13.6813 236.411 20.2241 236.452C20.2494 236.452 20.2748 236.452 20.3003 236.452H32.5949V212.548ZM38.3966 224.5C38.3966 231.101 43.7288 236.452 50.3066 236.452H50.6912C57.2691 236.452 62.6013 231.101 62.6013 224.5C62.6013 217.9 57.2691 212.548 50.6912 212.548H50.3066C43.7288 212.548 38.3966 217.9 38.3966 224.5ZM20.3003 242.274C20.2748 242.274 20.2494 242.274 20.2241 242.274C13.6813 242.315 8.39016 247.65 8.39016 254.226C8.39016 260.803 13.7937 266.178 20.3957 266.178C27.1041 266.178 32.5949 260.716 32.5949 254.033V242.274H20.3003ZM20.3003 182.822C13.7224 182.822 8.39016 188.173 8.39016 194.774C8.39016 201.375 13.7224 206.726 20.3003 206.726H32.5949V182.822H20.3003ZM38.3966 206.726H50.6912C57.2691 206.726 62.6013 201.375 62.6013 194.774C62.6013 188.173 57.2691 182.822 50.6912 182.822H38.3966V206.726Z" fill="#8232D1"/>
<path d="M239.531 177.762C239.531 173.619 236.606 171.331 231.469 171.331H222.019V184.681H229.988C236.138 184.663 239.531 182.188 239.531 177.762ZM273.938 175.363C272.156 169.569 271.894 162.462 272.1 156.969C272.306 151.25 267.844 146 261.844 146H200.194C194.175 146 189.731 151.269 189.938 156.969C190.125 162.462 189.881 169.569 188.1 175.363C186.3 181.175 183.281 184.85 178.312 185.319V190.663C183.262 191.131 186.3 194.806 188.1 200.619C189.881 206.412 190.144 213.519 189.938 219.012C189.731 224.731 194.194 229.981 200.194 229.981H261.825C267.844 229.981 272.287 224.713 272.081 219.012C271.894 213.519 272.138 206.412 273.919 200.619C275.719 194.806 278.738 191.131 283.688 190.663V185.319C278.756 184.85 275.719 181.175 273.938 175.363ZM233.288 210.331H214.931V165.65H233.194C241.313 165.65 246.637 170.037 246.637 176.787C246.637 181.531 243.056 185.769 238.481 186.5V186.744C244.706 187.419 248.887 191.731 248.887 197.675C248.887 205.569 243.019 210.331 233.288 210.331ZM231.413 189.95H222.019V204.65H231.825C238.237 204.65 241.631 202.081 241.631 197.244C241.631 192.425 238.144 189.95 231.413 189.95Z" fill="#8232D1"/>
<path d="M320.437 214.96C320.437 215.327 320.015 215.621 319.483 215.621C318.878 215.676 318.456 215.382 318.456 214.96C318.456 214.593 318.878 214.299 319.41 214.299C319.96 214.244 320.437 214.538 320.437 214.96ZM314.731 214.134C314.603 214.501 314.97 214.923 315.52 215.034C315.997 215.217 316.548 215.034 316.658 214.666C316.768 214.299 316.419 213.877 315.869 213.712C315.392 213.583 314.86 213.767 314.731 214.134ZM322.841 213.822C322.309 213.95 321.942 214.299 321.997 214.721C322.052 215.089 322.529 215.327 323.079 215.199C323.611 215.07 323.978 214.721 323.923 214.354C323.868 214.005 323.373 213.767 322.841 213.822ZM334.913 143.469C309.466 143.469 290 162.801 290 188.266C290 208.626 302.806 226.049 321.098 232.181C323.446 232.604 324.272 231.153 324.272 229.96C324.272 228.821 324.217 222.543 324.217 218.687C324.217 218.687 311.374 221.441 308.677 213.216C308.677 213.216 306.585 207.873 303.577 206.496C303.577 206.496 299.375 203.614 303.87 203.669C303.87 203.669 308.439 204.036 310.952 208.406C314.97 215.493 321.703 213.455 324.327 212.243C324.749 209.305 325.941 207.268 327.262 206.056C317.006 204.918 306.659 203.43 306.659 185.769C306.659 180.72 308.053 178.186 310.989 174.955C310.512 173.762 308.952 168.841 311.466 162.489C315.3 161.296 324.125 167.446 324.125 167.446C327.794 166.418 331.739 165.886 335.647 165.886C339.555 165.886 343.499 166.418 347.169 167.446C347.169 167.446 355.993 161.277 359.828 162.489C362.341 168.86 360.782 173.762 360.305 174.955C363.24 178.205 365.038 180.738 365.038 185.769C365.038 203.486 354.232 204.899 343.976 206.056C345.664 207.506 347.095 210.26 347.095 214.575C347.095 220.762 347.04 228.418 347.04 229.923C347.04 231.116 347.884 232.567 350.214 232.145C368.561 226.049 381 208.626 381 188.266C381 162.801 360.36 143.469 334.913 143.469ZM307.833 206.79C307.595 206.974 307.65 207.396 307.961 207.745C308.255 208.039 308.677 208.167 308.916 207.929C309.154 207.745 309.099 207.323 308.787 206.974C308.494 206.68 308.072 206.552 307.833 206.79ZM305.852 205.303C305.723 205.542 305.907 205.836 306.274 206.019C306.567 206.203 306.934 206.148 307.062 205.891C307.191 205.652 307.007 205.358 306.641 205.175C306.274 205.064 305.98 205.12 305.852 205.303ZM311.796 211.839C311.502 212.078 311.612 212.629 312.034 212.977C312.456 213.4 312.989 213.455 313.227 213.161C313.466 212.922 313.355 212.371 312.989 212.023C312.585 211.6 312.034 211.545 311.796 211.839ZM309.704 209.14C309.411 209.324 309.411 209.801 309.704 210.223C309.998 210.646 310.493 210.829 310.732 210.646C311.025 210.407 311.025 209.93 310.732 209.507C310.475 209.085 309.998 208.902 309.704 209.14Z" fill="#00D1FF"/>
</svg>
