<svg width="348" height="70" viewBox="0 0 348 70" fill="none" xmlns="http://www.w3.org/2000/svg">
<path d="M0.680001 69V0.935995H11.432V35.976L43.496 0.839996H55.4L28.52 30.984L56.936 69H44.744L21.704 37.8L11.432 48.456V69H0.680001Z" fill="#CA6FFA"/>
<path d="M121.367 69V20.424L101.303 57.288H94.967L74.807 20.424V69H64.055V0.839996H75.575L98.135 42.504L120.695 0.839996H132.215V69H121.367ZM147.586 69V0.839996H158.338V69H147.586ZM173.743 69V0.839996H184.495V59.496H221.071V69H173.743ZM249.485 0.839996H259.661L286.157 69H274.829L267.629 50.472H241.325L234.221 69H222.797L249.485 0.839996ZM265.517 42.504L254.573 12.648L243.245 42.504H265.517ZM287.641 34.44C287.641 30.28 288.377 26.216 289.849 22.248C291.321 18.216 293.465 14.568 296.281 11.304C299.161 7.976 302.649 5.352 306.745 3.432C310.841 1.448 315.481 0.455996 320.665 0.455996C326.809 0.455996 332.121 1.864 336.601 4.68C341.081 7.432 344.409 10.984 346.585 15.336L338.137 21C336.857 18.248 335.225 16.072 333.241 14.472C331.321 12.872 329.209 11.752 326.905 11.112C324.665 10.472 322.457 10.152 320.281 10.152C316.697 10.152 313.561 10.888 310.873 12.36C308.185 13.768 305.913 15.656 304.057 18.024C302.265 20.392 300.889 23.048 299.929 25.992C299.033 28.936 298.585 31.88 298.585 34.824C298.585 38.088 299.129 41.256 300.217 44.328C301.305 47.336 302.809 50.024 304.729 52.392C306.713 54.696 309.049 56.52 311.737 57.864C314.425 59.208 317.369 59.88 320.569 59.88C322.745 59.88 325.017 59.496 327.385 58.728C329.753 57.96 331.929 56.776 333.913 55.176C335.961 53.512 337.561 51.336 338.713 48.648L347.641 53.736C346.233 57.128 344.025 60.008 341.017 62.376C338.073 64.744 334.745 66.536 331.033 67.752C327.385 68.968 323.769 69.576 320.185 69.576C315.385 69.576 311.001 68.584 307.033 66.6C303.065 64.552 299.641 61.864 296.761 58.536C293.881 55.144 291.641 51.368 290.041 47.208C288.441 42.984 287.641 38.728 287.641 34.44Z" fill="#8232D1"/>
</svg>
